<svg xmlns="http://www.w3.org/2000/svg" width="720" height="520" viewBox="0 0 720 520" role="img">
  <style>
    .background { fill: #111416; }
    .frame { stroke: #879096; stroke-width: 15; fill: none; }
    .lever { stroke: #b8c0c4; stroke-width: 13; fill: none; }
    .ghost { stroke: #5c666b; stroke-width: 6; stroke-dasharray: 10 12; fill: none; }
    .cable { stroke: #b8c0c4; stroke-width: 4; fill: none; }
    .pad { stroke: #3b454a; stroke-width: 24; fill: none; }
    .seat { stroke: #3b454a; stroke-width: 28; fill: none; }
    .weight { stroke: #6f787d; stroke-width: 11; fill: #242a2d; }
    .body { stroke: #f2f5f3; stroke-width: 17; fill: none; }
    .torso { stroke: #f2f5f3; stroke-width: 34; fill: none; }
    .body-fill { fill: #f2f5f3; }
    .grip { fill: #c8ff2e; }
  </style>
  <rect width="720" height="520" rx="32" class="background" />
  <circle cx="660" cy="55" r="28" fill="#c8ff2e" />
  <text x="660" y="64" text-anchor="middle" font-family="Arial, sans-serif" font-size="26" font-weight="700" fill="#111416">1</text>
  <line x1="115" y1="445" x2="650" y2="445" class="frame" stroke-linecap="round" /><line x1="120" y1="445" x2="170" y2="90" class="frame" stroke-linecap="round" /><line x1="650" y1="445" x2="620" y2="105" class="frame" stroke-linecap="round" /><line x1="170" y1="90" x2="620" y2="105" class="frame" stroke-linecap="round" /><line x1="300" y1="350" x2="455" y2="350" class="seat" stroke-linecap="round" /><line x1="318" y1="175" x2="340" y2="350" class="pad" stroke-linecap="round" /><circle cx="610" cy="150" r="34" class="weight" /><circle cx="610" cy="150" r="10" class="background" /><circle cx="610" cy="285" r="34" class="weight" /><circle cx="610" cy="285" r="10" class="background" /><line x1="620" y1="105" x2="460" y2="238" class="lever" stroke-linecap="round" /><line x1="620" y1="105" x2="590" y2="215" class="ghost" stroke-linecap="round" /><circle cx="352" cy="157" r="24" class="body-fill" /><line x1="350" y1="187" x2="350" y2="337" class="torso" stroke-linecap="round" /><line x1="350" y1="205" x2="400" y2="250" class="body" stroke-linecap="round" /><line x1="400" y1="250" x2="460" y2="238" class="body" stroke-linecap="round" /><line x1="350" y1="337" x2="428" y2="375" class="body" stroke-linecap="round" /><line x1="428" y1="375" x2="460" y2="443" class="body" stroke-linecap="round" /><circle cx="460" cy="238" r="8" class="grip" />
</svg>
